<svg width="512" height="256" viewBox="0 0 512 256" xmlns="http://www.w3.org/2000/svg">
  <g fill="#2E4057">
    <!-- Left minaret -->
    <rect x="70" y="90" width="18" height="80" rx="2"/>
    <path d="M79 70c-10 10-10 18 0 28c10-10 10-18 0-28z"/>
    <!-- Right minaret -->
    <rect x="424" y="90" width="18" height="80" rx="2"/>
    <path d="M433 70c-10 10-10 18 0 28c10-10 10-18 0-28z"/>

    <!-- Central dome -->
    <path d="M256 40c-46 20-72 50-72 88v28h144v-28c0-38-26-68-72-88z"/>

    <!-- Mosque base and arches -->
    <rect x="96" y="140" width="320" height="52" rx="6"/>
    <path d="M136 192a20 20 0 1 1 40 0v0h-40z"/>
    <path d="M206 192a20 20 0 1 1 40 0v0h-40z"/>
    <path d="M276 192a20 20 0 1 1 40 0v0h-40z"/>
    <path d="M346 192a20 20 0 1 1 40 0v0h-40z"/>
  </g>
</svg>


