<svg viewBox="0 0 375 812" xmlns="http://www.w3.org/2000/svg">
  <defs>
    <!-- Gradients -->
    <linearGradient id="prayerGradient" x1="0%" y1="0%" x2="100%" y2="100%">
      <stop offset="0%" style="stop-color:#1565C0;stop-opacity:1" />
      <stop offset="100%" style="stop-color:#42A5F5;stop-opacity:1" />
    </linearGradient>
    
    <linearGradient id="fajrGradient" x1="0%" y1="0%" x2="100%" y2="100%">
      <stop offset="0%" style="stop-color:#3F51B5;stop-opacity:0.1" />
      <stop offset="100%" style="stop-color:#FFFFFF;stop-opacity:1" />
    </linearGradient>
    
    <linearGradient id="activeGradient" x1="0%" y1="0%" x2="100%" y2="100%">
      <stop offset="0%" style="stop-color:#2E7D32;stop-opacity:0.1" />
      <stop offset="100%" style="stop-color:#FFFFFF;stop-opacity:1" />
    </linearGradient>
    
    <!-- Shadow filter -->
    <filter id="cardShadow" x="-20%" y="-20%" width="140%" height="140%">
      <feDropShadow dx="0" dy="4" stdDeviation="8" flood-opacity="0.15"/>
    </filter>
  </defs>
  
  <!-- Phone Frame -->
  <rect width="375" height="812" rx="25" fill="#000000"/>
  <rect x="3" y="3" width="369" height="806" rx="22" fill="#F8F9FA"/>
  
  <!-- Status Bar -->
  <rect x="3" y="3" width="369" height="44" rx="22" fill="url(#prayerGradient)"/>
  <text x="20" y="28" fill="white" font-size="14" font-weight="600">9:41</text>
  <text x="320" y="28" fill="white" font-size="12">100%</text>
  <rect x="325" y="20" width="20" height="10" rx="2" fill="white" opacity="0.8"/>
  
  <!-- App Bar -->
  <rect x="3" y="47" width="369" height="56" fill="url(#prayerGradient)"/>
  <text x="20" y="80" fill="white" font-size="18">тЖР</text>
  <text x="187" y="80" text-anchor="middle" fill="white" font-size="18" font-weight="600">Prayer Times | ржирж╛ржорж╛ржЬрзЗрж░ рж╕ржоржпрж╝</text>
  <text x="340" y="80" fill="white" font-size="18">тЪЩ</text>
  
  <!-- Date Header -->
  <rect x="16" y="115" width="343" height="60" rx="12" fill="white" filter="url(#cardShadow)"/>
  <text x="32" y="135" fill="#2E7D32" font-size="16" font-weight="bold">Today | ржЖржЬ</text>
  <text x="32" y="155" fill="#666" font-size="14">Friday, 15 Ramadan 1445</text>
  <text x="32" y="170" fill="#666" font-size="12" font-family="Arial">ржЬрзБржорж╛, рззрзл рж░ржоржЬрж╛ржи рззрзкрзкрзл</text>
  <circle cx="320" cy="145" r="20" fill="#4CAF50" opacity="0.1"/>
  <text x="320" y="152" text-anchor="middle" fill="#4CAF50" font-size="20">ЁЯМЩ</text>
  
  <!-- Current Prayer Card -->
  <rect x="16" y="190" width="343" height="80" rx="16" fill="url(#activeGradient)" stroke="#2E7D32" stroke-width="2" filter="url(#cardShadow)"/>
  <rect x="32" y="206" width="48" height="48" rx="12" fill="#2E7D32"/>
  <text x="56" y="235" text-anchor="middle" fill="white" font-size="20">ЁЯМЕ</text>
  
  <text x="96" y="215" fill="#2E7D32" font-size="16" font-weight="bold">Fajr | ржлржЬрж░</text>
  <text x="96" y="235" fill="#333" font-size="14">5:15 AM</text>
  <text x="96" y="250" fill="#4CAF50" font-size="12" font-weight="600">тЬУ Completed | рж╕ржорзНржкржирзНржи</text>
  
  <text x="290" y="220" text-anchor="middle" fill="#2E7D32" font-size="12">Next in</text>
  <text x="290" y="240" text-anchor="middle" fill="#2E7D32" font-size="16" font-weight="bold">7h 45m</text>
  
  <!-- Prayer Cards -->
  <rect x="16" y="285" width="343" height="70" rx="12" fill="white" filter="url(#cardShadow)"/>
  <rect x="32" y="297" width="40" height="40" rx="10" fill="#FFF3E0"/>
  <text x="52" y="322" text-anchor="middle" fill="#FF8F00" font-size="18">тШАя╕П</text>
  <text x="84" y="310" fill="#333" font-size="15" font-weight="600">Dhuhr | ржпрзБрж╣рж░</text>
  <text x="84" y="328" fill="#666" font-size="13">1:20 PM</text>
  <text x="84" y="343" fill="#FF8F00" font-size="11">in 6h 5m</text>
  <circle cx="320" cy="320" r="12" stroke="#DDD" stroke-width="2" fill="none"/>
  
  <rect x="16" y="365" width="343" height="70" rx="12" fill="white" filter="url(#cardShadow)"/>
  <rect x="32" y="377" width="40" height="40" rx="10" fill="#F3E5F5"/>
  <text x="52" y="402" text-anchor="middle" fill="#7B1FA2" font-size="18">ЁЯМд</text>
  <text x="84" y="390" fill="#333" font-size="15" font-weight="600">Asr | ржЖрж╕рж░</text>
  <text x="84" y="408" fill="#666" font-size="13">4:45 PM</text>
  <text x="84" y="423" fill="#7B1FA2" font-size="11">in 9h 30m</text>
  <circle cx="320" cy="400" r="12" stroke="#DDD" stroke-width="2" fill="none"/>
  
  <rect x="16" y="445" width="343" height="70" rx="12" fill="white" filter="url(#cardShadow)"/>
  <rect x="32" y="457" width="40" height="40" rx="10" fill="#FFEBEE"/>
  <text x="52" y="482" text-anchor="middle" fill="#D84315" font-size="18">ЁЯМЖ</text>
  <text x="84" y="470" fill="#333" font-size="15" font-weight="600">Maghrib | ржорж╛ржЧрж░рж┐ржм</text>
  <text x="84" y="488" fill="#666" font-size="13">6:30 PM</text>
  <text x="84" y="503" fill="#D84315" font-size="11">in 11h 15m</text>
  <circle cx="320" cy="480" r="12" stroke="#DDD" stroke-width="2" fill="none"/>
  
  <rect x="16" y="525" width="343" height="70" rx="12" fill="white" filter="url(#cardShadow)"/>
  <rect x="32" y="537" width="40" height="40" rx="10" fill="#EFEBE9"/>
  <text x="52" y="562" text-anchor="middle" fill="#5D4037" font-size="18">ЁЯМЩ</text>
  <text x="84" y="550" fill="#333" font-size="15" font-weight="600">Isha | ржЗрж╢рж╛</text>
  <text x="84" y="568" fill="#666" font-size="13">8:00 PM</text>
  <text x="84" y="583" fill="#5D4037" font-size="11">in 12h 45m</text>
  <circle cx="320" cy="560" r="12" stroke="#DDD" stroke-width="2" fill="none"/>
  
  <!-- Quick Stats -->
  <rect x="16" y="610" width="343" height="80" rx="12" fill="white" filter="url(#cardShadow)"/>
  <text x="32" y="630" fill="#2E7D32" font-size="14" font-weight="bold">Today's Progress | ржЖржЬржХрзЗрж░ ржЕржЧрзНрж░ржЧрждрж┐</text>
  
  <!-- Progress indicators -->
  <rect x="32" y="645" width="100" height="30" rx="6" fill="#E8F5E8"/>
  <text x="82" y="655" text-anchor="middle" fill="#2E7D32" font-size="10" font-weight="600">Prayers</text>
  <text x="82" y="670" text-anchor="middle" fill="#2E7D32" font-size="14" font-weight="bold">1/5</text>
  
  <rect x="145" y="645" width="100" height="30" rx="6" fill="#FFF3E0"/>
  <text x="195" y="655" text-anchor="middle" fill="#FF8F00" font-size="10" font-weight="600">Streak</text>
  <text x="195" y="670" text-anchor="middle" fill="#FF8F00" font-size="14" font-weight="bold">7 days</text>
  
  <rect x="258" y="645" width="85" height="30" rx="6" fill="#E3F2FD"/>
  <text x="300" y="655" text-anchor="middle" fill="#1565C0" font-size="10" font-weight="600">Month</text>
  <text x="300" y="670" text-anchor="middle" fill="#1565C0" font-size="14" font-weight="bold">85%</text>
  
  <!-- Location Info -->
  <rect x="16" y="705" width="343" height="35" rx="8" fill="#F5F5F5"/>
  <text x="32" y="720" fill="#666" font-size="12">ЁЯУН Dhaka, Bangladesh</text>
  <text x="32" y="732" fill="#999" font-size="10">Calculation Method: Islamic Society of North America</text>
  
  <!-- Bottom Navigation -->
  <rect x="3" y="750" width="369" height="62" rx="0 0 22 22" fill="white"/>
  <rect x="3" y="740" width="369" height="20" fill="white"/>
  <line x1="3" y1="750" x2="372" y2="750" stroke="#E0E0E0" stroke-width="1"/>
  
  <!-- Nav Items -->
  <text x="55" y="778" text-anchor="middle" fill="#666" font-size="16">ЁЯПа</text>
  <text x="55" y="795" text-anchor="middle" fill="#666" font-size="10">Home</text>
  
  <rect x="100" y="765" width="50" height="35" rx="8" fill="#E3F2FD"/>
  <text x="125" y="778" text-anchor="middle" fill="#1565C0" font-size="16">ЁЯХМ</text>
  <text x="125" y="795" text-anchor="middle" fill="#1565C0" font-size="10" font-weight="600">Prayer</text>
  
  <text x="195" y="778" text-anchor="middle" fill="#666" font-size="16">ЁЯзо</text>
  <text x="195" y="795" text-anchor="middle" fill="#666" font-size="10">Zakat</text>
  
  <text x="265" y="778" text-anchor="middle" fill="#666" font-size="16">ЁЯзн</text>
  <text x="265" y="795" text-anchor="middle" fill="#666" font-size="10">Qibla</text>
  
  <text x="335" y="778" text-anchor="middle" fill="#666" font-size="16">тЛп</text>
  <text x="335" y="795" text-anchor="middle" fill="#666" font-size="10">More</text>
</svg>
