<svg viewBox="0 0 375 812" xmlns="http://www.w3.org/2000/svg">
  <defs>
    <!-- Gradients -->
    <linearGradient id="quranGradient" x1="0%" y1="0%" x2="100%" y2="100%">
      <stop offset="0%" style="stop-color:#7B1FA2;stop-opacity:1" />
      <stop offset="100%" style="stop-color:#BA68C8;stop-opacity:1" />
    </linearGradient>
    
    <linearGradient id="hadithGradient" x1="0%" y1="0%" x2="100%" y2="100%">
      <stop offset="0%" style="stop-color:#FF8F00;stop-opacity:1" />
      <stop offset="100%" style="stop-color:#FFB74D;stop-opacity:1" />
    </linearGradient>
    
    <linearGradient id="duaGradient" x1="0%" y1="0%" x2="100%" y2="100%">
      <stop offset="0%" style="stop-color:#5D4037;stop-opacity:1" />
      <stop offset="100%" style="stop-color:#8D6E63;stop-opacity:1" />
    </linearGradient>
    
    <!-- Shadow filter -->
    <filter id="cardShadow" x="-20%" y="-20%" width="140%" height="140%">
      <feDropShadow dx="0" dy="4" stdDeviation="8" flood-opacity="0.15"/>
    </filter>
  </defs>
  
  <!-- Phone Frame -->
  <rect width="375" height="812" rx="25" fill="#000000"/>
  <rect x="3" y="3" width="369" height="806" rx="22" fill="#F8F9FA"/>
  
  <!-- Status Bar -->
  <rect x="3" y="3" width="369" height="44" rx="22" fill="url(#quranGradient)"/>
  <text x="20" y="28" fill="white" font-size="14" font-weight="600">9:41</text>
  <text x="320" y="28" fill="white" font-size="12">100%</text>
  <rect x="325" y="20" width="20" height="10" rx="2" fill="white" opacity="0.8"/>
  
  <!-- App Bar -->
  <rect x="3" y="47" width="369" height="56" fill="url(#quranGradient)"/>
  <text x="20" y="80" fill="white" font-size="18">тЖР</text>
  <text x="187" y="80" text-anchor="middle" fill="white" font-size="18" font-weight="600">Daily Islamic Content</text>
  <text x="340" y="80" fill="white" font-size="18">тЪЩ</text>
  
  <!-- Content Title -->
  <text x="24" y="130" fill="#2E7D32" font-size="20" font-weight="bold">Today's Islamic Content</text>
  <text x="24" y="150" fill="#666" font-size="14" font-family="Arial">ржжрзИржирж┐ржХ ржЗрж╕рж▓рж╛ржорж┐ржХ ржХржирзНржЯрзЗржирзНржЯ</text>
  
  <!-- Today's Ayah Card -->
  <rect x="16" y="165" width="343" height="180" rx="16" fill="white" filter="url(#cardShadow)"/>
  
  <!-- Card Header -->
  <rect x="16" y="165" width="343" height="50" rx="16 16 0 0" fill="#F3E5F5"/>
  <rect x="24" y="175" width="32" height="32" rx="8" fill="#7B1FA2" opacity="0.2"/>
  <text x="40" y="195" text-anchor="middle" fill="#7B1FA2" font-size="16">ЁЯУЦ</text>
  <text x="68" y="195" fill="#7B1FA2" font-size="16" font-weight="bold">Today's Ayah | ржЖржЬржХрзЗрж░ ржЖржпрж╝рж╛ржд</text>
  
  <!-- Arabic Text -->
  <rect x="28" y="235" width="319" height="60" rx="8" fill="#F9F9F9" stroke="#E0E0E0"/>
  <text x="187" y="255" text-anchor="middle" fill="#333" font-size="18" font-family="Arial">┘И┘О┘Е┘О┘Ж ┘К┘О╪к┘О┘С┘В┘Р ╪з┘Д┘Д┘О┘С┘З┘О ┘К┘О╪м┘Т╪╣┘О┘Д ┘Д┘О┘С┘З┘П ┘Е┘О╪о┘Т╪▒┘О╪м┘Л╪з</text>
  <text x="187" y="280" text-anchor="middle" fill="#666" font-size="11" font-style="italic">Wa man yattaqi Allaha yaj'al lahu makhrajan</text>
  
  <!-- Bengali Translation -->
  <rect x="28" y="305" width="319" height="25" rx="4" fill="#F3E5F5"/>
  <text x="187" y="322" text-anchor="middle" fill="#333" font-size="13" font-family="Arial">ржпрзЗ ржЖрж▓рзНрж▓рж╛рж╣ржХрзЗ ржнржпрж╝ ржХрж░рзЗ, рждрж┐ржирж┐ рждрж╛рж░ ржЬржирзНржп ржЙрждрзНрждрж░ржгрзЗрж░ ржкрже ржХрж░рзЗ ржжрзЗржиред</text>
  
  <!-- Reference -->
  <rect x="270" y="325" width="70" height="15" rx="8" fill="#7B1FA2" opacity="0.1"/>
  <text x="305" y="335" text-anchor="middle" fill="#7B1FA2" font-size="10" font-weight="600">Surah At-Talaq 65:2</text>
  
  <!-- Today's Hadith Card -->
  <rect x="16" y="360" width="343" height="180" rx="16" fill="white" filter="url(#cardShadow)"/>
  
  <!-- Card Header -->
  <rect x="16" y="360" width="343" height="50" rx="16 16 0 0" fill="#FFF3E0"/>
  <rect x="24" y="370" width="32" height="32" rx="8" fill="#FF8F00" opacity="0.2"/>
  <text x="40" y="390" text-anchor="middle" fill="#FF8F00" font-size="16">ЁЯТм</text>
  <text x="68" y="390" fill="#FF8F00" font-size="16" font-weight="bold">Today's Hadith | ржЖржЬржХрзЗрж░ рж╣рж╛ржжрж┐рж╕</text>
  
  <!-- Arabic Text -->
  <rect x="28" y="430" width="319" height="40" rx="8" fill="#F9F9F9" stroke="#E0E0E0"/>
  <text x="187" y="450" text-anchor="middle" fill="#333" font-size="16" font-family="Arial">╪е┘Р┘Ж┘О┘С┘Е┘О╪з ╪з┘Д╪г┘О╪╣┘Т┘Е┘О╪з┘Д┘П ╪и┘Р╪з┘Д┘Ж┘Р┘С┘К┘О┘С╪з╪к┘Р</text>
  <text x="187" y="465" text-anchor="middle" fill="#666" font-size="11" font-style="italic">Innama al-a'malu bil-niyyat</text>
  
  <!-- Bengali Translation -->
  <rect x="28" y="480" width="319" height="25" rx="4" fill="#FFF3E0"/>
  <text x="187" y="497" text-anchor="middle" fill="#333" font-size="13" font-family="Arial">ржирж┐рж╢рзНржЪржпрж╝ржЗ рж╕ржХрж▓ ржХрж╛ржЬ ржирж┐ржпрж╝рждрзЗрж░ ржЙржкрж░ ржирж┐рж░рзНржнрж░рж╢рзАрж▓ред</text>
  
  <!-- English Translation -->
  <text x="187" y="515" text-anchor="middle" fill="#666" font-size="12">Verily, deeds are only with intentions.</text>
  
  <!-- Reference -->
  <rect x="270" y="520" width="70" height="15" rx="8" fill="#FF8F00" opacity="0.1"/>
  <text x="305" y="530" text-anchor="middle" fill="#FF8F00" font-size="10" font-weight="600">Sahih Bukhari 1</text>
  
  <!-- Today's Dua Card -->
  <rect x="16" y="555" width="343" height="140" rx="16" fill="white" filter="url(#cardShadow)"/>
  
  <!-- Card Header -->
  <rect x="16" y="555" width="343" height="50" rx="16 16 0 0" fill="#EFEBE9"/>
  <rect x="24" y="565" width="32" height="32" rx="8" fill="#5D4037" opacity="0.2"/>
  <text x="40" y="585" text-anchor="middle" fill="#5D4037" font-size="16">ЁЯд▓</text>
  <text x="68" y="585" fill="#5D4037" font-size="16" font-weight="bold">Today's Dua | ржЖржЬржХрзЗрж░ ржжрзЛржпрж╝рж╛</text>
  
  <!-- Arabic Text -->
  <rect x="28" y="615" width="319" height="30" rx="8" fill="#F9F9F9" stroke="#E0E0E0"/>
  <text x="187" y="635" text-anchor="middle" fill="#333" font-size="14" font-family="Arial">╪▒┘О╪и┘О┘С┘Ж┘О╪з ╪в╪к┘Р┘Ж┘О╪з ┘Б┘Р┘К ╪з┘Д╪п┘П┘С┘Ж┘Т┘К┘О╪з ╪н┘О╪│┘О┘Ж┘О╪й┘Л</text>
  
  <!-- Bengali Translation -->
  <rect x="28" y="655" width="319" height="25" rx="4" fill="#EFEBE9"/>
  <text x="187" y="672" text-anchor="middle" fill="#333" font-size="12" font-family="Arial">рж╣рзЗ ржЖржорж╛ржжрзЗрж░ рж░ржм! ржЖржорж╛ржжрзЗрж░ ржжрзБржирж┐ржпрж╝рж╛рждрзЗ ржХрж▓рзНржпрж╛ржг ржжрж┐ржиред</text>
  
  <!-- Reference -->
  <rect x="290" y="680" width="50" height="15" rx="8" fill="#5D4037" opacity="0.1"/>
  <text x="315" y="690" text-anchor="middle" fill="#5D4037" font-size="10" font-weight="600">Quran 2:201</text>
  
  <!-- Navigation Dots -->
  <circle cx="177" cy="720" r="4" fill="#7B1FA2"/>
  <circle cx="195" cy="720" r="3" fill="#CCC"/>
  <circle cx="211" cy="720" r="3" fill="#CCC"/>
  
  <!-- Bottom Navigation -->
  <rect x="3" y="750" width="369" height="62" rx="0 0 22 22" fill="white"/>
  <rect x="3" y="740" width="369" height="20" fill="white"/>
  <line x1="3" y1="750" x2="372" y2="750" stroke="#E0E0E0" stroke-width="1"/>
  
  <!-- Nav Items -->
  <text x="55" y="778" text-anchor="middle" fill="#666" font-size="16">ЁЯПа</text>
  <text x="55" y="795" text-anchor="middle" fill="#666" font-size="10">Home</text>
  
  <text x="125" y="778" text-anchor="middle" fill="#666" font-size="16">ЁЯХМ</text>
  <text x="125" y="795" text-anchor="middle" fill="#666" font-size="10">Prayer</text>
  
  <text x="195" y="778" text-anchor="middle" fill="#666" font-size="16">ЁЯзо</text>
  <text x="195" y="795" text-anchor="middle" fill="#666" font-size="10">Zakat</text>
  
  <text x="265" y="778" text-anchor="middle" fill="#666" font-size="16">ЁЯзн</text>
  <text x="265" y="795" text-anchor="middle" fill="#666" font-size="10">Qibla</text>
  
  <rect x="310" y="765" width="50" height="35" rx="8" fill="#F3E5F5"/>
  <text x="335" y="778" text-anchor="middle" fill="#7B1FA2" font-size="16">ЁЯУЦ</text>
  <text x="335" y="795" text-anchor="middle" fill="#7B1FA2" font-size="10" font-weight="600">Islam</text>
</svg>
