<svg viewBox="0 0 375 812" xmlns="http://www.w3.org/2000/svg">
  <defs>
    <!-- Gradients -->
    <linearGradient id="qiblaGradient" x1="0%" y1="0%" x2="100%" y2="100%">
      <stop offset="0%" style="stop-color:#FF8F00;stop-opacity:1" />
      <stop offset="100%" style="stop-color:#FFB74D;stop-opacity:1" />
    </linearGradient>
    
    <linearGradient id="compassOuter" x1="0%" y1="0%" x2="100%" y2="100%">
      <stop offset="0%" style="stop-color:#FFFFFF;stop-opacity:0.1" />
      <stop offset="100%" style="stop-color:#FFFFFF;stop-opacity:0.05" />
    </linearGradient>
    
    <linearGradient id="compassInner" x1="0%" y1="0%" x2="100%" y2="100%">
      <stop offset="0%" style="stop-color:#FFFFFF;stop-opacity:0.05" />
      <stop offset="100%" style="stop-color:#FFFFFF;stop-opacity:0.02" />
    </linearGradient>
    
    <linearGradient id="kaabaIcon" x1="0%" y1="0%" x2="100%" y2="100%">
      <stop offset="0%" style="stop-color:#FFFFFF;stop-opacity:1" />
      <stop offset="100%" style="stop-color:#F5F5F5;stop-opacity:1" />
    </linearGradient>
    
    <!-- Shadow filter -->
    <filter id="cardShadow" x="-20%" y="-20%" width="140%" height="140%">
      <feDropShadow dx="0" dy="4" stdDeviation="8" flood-opacity="0.15"/>
    </filter>
    
    <!-- Islamic star pattern -->
    <pattern id="islamicStar" x="0" y="0" width="60" height="60" patternUnits="userSpaceOnUse">
      <rect width="60" height="60" fill="none"/>
      <circle cx="30" cy="30" r="25" fill="none" stroke="#FFE0B2" stroke-width="0.5" opacity="0.3"/>
      <path d="M30,5 L35,30 L30,55 L25,30 Z" fill="none" stroke="#FFE0B2" stroke-width="0.5" opacity="0.2"/>
      <circle cx="30" cy="30" r="12" fill="none" stroke="#FFE0B2" stroke-width="0.3" opacity="0.4"/>
      <path d="M30,18 L36,30 L30,42 L24,30 Z" fill="#FFE0B2" opacity="0.1"/>
    </pattern>
  </defs>
  
  <!-- Phone Frame -->
  <rect width="375" height="812" rx="25" fill="#000000"/>
  <rect x="3" y="3" width="369" height="806" rx="22" fill="url(#qiblaGradient)"/>
  <rect x="3" y="3" width="369" height="806" rx="22" fill="url(#islamicStar)" opacity="0.3"/>
  
  <!-- Status Bar -->
  <rect x="3" y="3" width="369" height="44" rx="22" fill="rgba(255,143,0,0.9)"/>
  <text x="20" y="28" fill="white" font-size="14" font-weight="600">9:41</text>
  <text x="320" y="28" fill="white" font-size="12">100%</text>
  <rect x="325" y="20" width="20" height="10" rx="2" fill="white" opacity="0.8"/>
  
  <!-- App Bar -->
  <rect x="3" y="47" width="369" height="56" fill="rgba(255,143,0,0.9)"/>
  <text x="20" y="80" fill="white" font-size="18">тЖР</text>
  <text x="187" y="80" text-anchor="middle" fill="white" font-size="18" font-weight="600">Qibla Compass | ржХрж┐ржмрж▓рж╛рж░ ржжрж┐ржХ</text>
  <text x="340" y="80" fill="white" font-size="18">тЪЩ</text>
  
  <!-- Location Info Card -->
  <rect x="16" y="115" width="343" height="60" rx="12" fill="white" opacity="0.15" filter="url(#cardShadow)"/>
  <rect x="24" y="123" width="40" height="40" rx="8" fill="white" opacity="0.2"/>
  <text x="44" y="148" text-anchor="middle" fill="white" font-size="20">ЁЯУН</text>
  <text x="76" y="135" fill="white" font-size="14" font-weight="bold">Your Location | ржЖржкржирж╛рж░ ржЕржмрж╕рзНржерж╛ржи</text>
  <text x="76" y="150" fill="white" font-size="13" opacity="0.9">Dhaka, Bangladesh</text>
  <text x="76" y="163" fill="white" font-size="11" opacity="0.8">23.8103┬░N, 90.4125┬░E</text>
  
  <!-- Main Compass Container -->
  <g transform="translate(187.5, 400)">
    
    <!-- Outer Compass Circle -->
    <circle cx="0" cy="0" r="140" fill="url(#compassOuter)" stroke="white" stroke-width="2" opacity="0.3"/>
    
    <!-- Inner Compass Circle -->
    <circle cx="0" cy="0" r="120" fill="url(#compassInner)" stroke="white" stroke-width="1" opacity="0.2"/>
    
    <!-- Compass Markings (8 directions) -->
    <g id="compassMarks">
      <line x1="0" y1="-140" x2="0" y2="-120" stroke="white" stroke-width="2" opacity="0.5"/>
      <line x1="0" y1="120" x2="0" y2="140" stroke="white" stroke-width="2" opacity="0.5"/>
      <line x1="-140" y1="0" x2="-120" y2="0" stroke="white" stroke-width="2" opacity="0.5"/>
      <line x1="120" y1="0" x2="140" y2="0" stroke="white" stroke-width="2" opacity="0.5"/>
      
      <line x1="-99" y1="-99" x2="-85" y2="-85" stroke="white" stroke-width="1.5" opacity="0.4"/>
      <line x1="85" y1="85" x2="99" y2="99" stroke="white" stroke-width="1.5" opacity="0.4"/>
      <line x1="-99" y1="99" x2="-85" y2="85" stroke="white" stroke-width="1.5" opacity="0.4"/>
      <line x1="85" y1="-85" x2="99" y2="-99" stroke="white" stroke-width="1.5" opacity="0.4"/>
    </g>
    
    <!-- Cardinal Directions -->
    <g id="cardinalDirections">
      <!-- North -->
      <text x="0" y="-110" text-anchor="middle" fill="white" font-size="18" font-weight="bold">N</text>
      <text x="0" y="-95" text-anchor="middle" fill="white" font-size="12" font-weight="500">╪┤┘Е╪з┘Д</text>
      <text x="0" y="-80" text-anchor="middle" fill="white" font-size="12" font-weight="500">ржЙрждрзНрждрж░</text>
      
      <!-- East -->
      <text x="110" y="0" text-anchor="middle" fill="white" font-size="18" font-weight="bold">E</text>
      <text x="95" y="0" text-anchor="middle" fill="white" font-size="12" font-weight="500">╪┤╪▒┘В</text>
      <text x="80" y="0" text-anchor="middle" fill="white" font-size="12" font-weight="500">ржкрзВрж░рзНржм</text>
      
      <!-- South -->
      <text x="0" y="110" text-anchor="middle" fill="white" font-size="18" font-weight="bold">S</text>
      <text x="0" y="95" text-anchor="middle" fill="white" font-size="12" font-weight="500">╪м┘Ж┘И╪и</text>
      <text x="0" y="80" text-anchor="middle" fill="white" font-size="12" font-weight="500">ржжржХрзНрж╖рж┐ржг</text>
      
      <!-- West -->
      <text x="-110" y="0" text-anchor="middle" fill="white" font-size="18" font-weight="bold">W</text>
      <text x="-95" y="0" text-anchor="middle" fill="white" font-size="12" font-weight="500">╪║╪▒╪и</text>
      <text x="-80" y="0" text-anchor="middle" fill="white" font-size="12" font-weight="500">ржкрж╢рзНржЪрж┐ржо</text>
    </g>
    
    <!-- Qibla Direction Arrow -->
    <g id="qiblaArrow" transform="rotate(292.5)">
      <!-- Arrow Shaft -->
      <line x1="0" y1="40" x2="0" y2="-90" stroke="white" stroke-width="8" stroke-linecap="round"/>
      
      <!-- Arrow Head -->
      <path d="M0,-90 L-15,-60 L15,-60 Z" fill="white"/>
      
      <!-- Arrow Outline -->
      <path d="M0,-90 L-15,-60 L15,-60 Z" fill="none" stroke="#FF8F00" stroke-width="2"/>
      
      <!-- Islamic Star Pattern around arrow -->
      <g opacity="0.3">
        <line x1="-80" y1="-80" x2="80" y2="80" stroke="white" stroke-width="1"/>
        <line x1="80" y1="-80" x2="-80" y2="80" stroke="white" stroke-width="1"/>
        <line x1="0" y1="-80" x2="0" y2="80" stroke="white" stroke-width="1"/>
        <line x1="-80" y1="0" x2="80" y2="0" stroke="white" stroke-width="1"/>
      </g>
    </g>
    
    <!-- Center Kaaba Icon -->
    <circle cx="0" cy="0" r="30" fill="url(#kaabaIcon)" filter="url(#cardShadow)"/>
    <text x="0" y="8" text-anchor="middle" fill="#FF8F00" font-size="24">ЁЯХЛ</text>
    
    <!-- Accuracy Indicator -->
    <rect x="-40" y="-180" width="80" height="25" rx="12" fill="#4CAF50" opacity="0.9"/>
    <text x="0" y="-165" text-anchor="middle" fill="white" font-size="12" font-weight="bold">Excellent</text>
    
    <!-- Direction Text -->
    <rect x="-80" y="180" width="160" height="60" rx="20" fill="white" filter="url(#cardShadow)"/>
    <text x="0" y="200" text-anchor="middle" fill="#FF8F00" font-size="14" font-weight="bold">Turn Right</text>
    <text x="0" y="215" text-anchor="middle" fill="#FF8F00" font-size="11">╪з╪к╪м┘З ┘К┘Е┘К┘Ж╪з┘Л</text>
    <text x="0" y="230" text-anchor="middle" fill="#FF8F00" font-size="11">ржбрж╛ржи ржжрж┐ржХрзЗ ржШрзБрж░рзБржи</text>
    
  </g>
  
  <!-- Distance and Direction Info -->
  <rect x="16" y="580" width="343" height="80" rx="12" fill="white" opacity="0.15" filter="url(#cardShadow)"/>
  
  <!-- Distance Info -->
  <text x="32" y="600" fill="white" font-size="12" opacity="0.8">Distance to Mecca | ржоржХрзНржХрж╛рж░ ржжрзВрж░рждрзНржм</text>
  <text x="32" y="620" fill="white" font-size="20" font-weight="bold">6,847 km</text>
  <text x="32" y="635" fill="white" font-size="11" opacity="0.7">Approximate distance</text>
  
  <!-- Direction Info -->
  <text x="200" y="600" fill="white" font-size="12" opacity="0.8">Qibla Direction | ржХрж┐ржмрж▓рж╛ ржжрж┐ржХ</text>
  <text x="200" y="620" fill="white" font-size="20" font-weight="bold">292.5┬░</text>
  <text x="200" y="635" fill="white" font-size="11" opacity="0.7">Northwest</text>
  
  <!-- Calibration Status -->
  <rect x="16" y="675" width="343" height="50" rx="12" fill="white" opacity="0.1" filter="url(#cardShadow)"/>
  <rect x="24" y="683" width="32" height="32" rx="8" fill="#4CAF50" opacity="0.2"/>
  <text x="40" y="703" text-anchor="middle" fill="#4CAF50" font-size="16">тЬУ</text>
  <text x="68" y="695" fill="white" font-size="14" font-weight="bold">Compass Calibrated | ржХржорзНржкрж╛рж╕ ржХрзНржпрж╛рж▓рж┐ржмрзНрж░рзЗржЯрзЗржб</text>
  <text x="68" y="710" fill="white" font-size="11" opacity="0.8">High accuracy readings available</text>
  
  <!-- Action Buttons -->
  <rect x="16" y="740" width="165" height="45" rx="22" fill="white" opacity="0.2"/>
  <text x="98" y="765" text-anchor="middle" fill="white" font-size="16" font-weight="600">ЁЯФД Refresh</text>
  
  <rect x="194" y="740" width="165" height="45" rx="22" fill="white" opacity="0.2"/>
  <text x="276" y="765" text-anchor="middle" fill="white" font-size="16" font-weight="600">тЪЩя╕П Settings</text>
  
  <!-- Bottom Navigation -->
  <rect x="3" y="750" width="369" height="62" rx="0 0 22 22" fill="white"/>
  <rect x="3" y="740" width="369" height="20" fill="white"/>
  <line x1="3" y1="750" x2="372" y2="750" stroke="#E0E0E0" stroke-width="1"/>
  
  <!-- Nav Items -->
  <text x="55" y="778" text-anchor="middle" fill="#666" font-size="16">ЁЯПа</text>
  <text x="55" y="795" text-anchor="middle" fill="#666" font-size="10">Home</text>
  
  <text x="125" y="778" text-anchor="middle" fill="#666" font-size="16">ЁЯХМ</text>
  <text x="125" y="795" text-anchor="middle" fill="#666" font-size="10">Prayer</text>
  
  <text x="195" y="778" text-anchor="middle" fill="#666" font-size="16">ЁЯзо</text>
  <text x="195" y="795" text-anchor="middle" fill="#666" font-size="10">Zakat</text>
  
  <rect x="240" y="765" width="50" height="35" rx="8" fill="#FFE0B2"/>
  <text x="265" y="778" text-anchor="middle" fill="#FF8F00" font-size="16">ЁЯзн</text>
  <text x="265" y="795" text-anchor="middle" fill="#FF8F00" font-size="10" font-weight="600">Qibla</text>
  
  <text x="335" y="778" text-anchor="middle" fill="#666" font-size="16">тЛп</text>
  <text x="335" y="795" text-anchor="middle" fill="#666" font-size="10">More</text>
</svg>
