<svg viewBox="0 0 375 812" xmlns="http://www.w3.org/2000/svg">
  <defs>
    <!-- Gradients -->
    <linearGradient id="calibrationGradient" x1="0%" y1="0%" x2="100%" y2="100%">
      <stop offset="0%" style="stop-color:#1565C0;stop-opacity:1" />
      <stop offset="100%" style="stop-color:#42A5F5;stop-opacity:1" />
    </linearGradient>
    
    <linearGradient id="compassOuter" x1="0%" y1="0%" x2="100%" y2="100%">
      <stop offset="0%" style="stop-color:#FFFFFF;stop-opacity:0.1" />
      <stop offset="100%" style="stop-color:#FFFFFF;stop-opacity:0.05" />
    </linearGradient>
    
    <linearGradient id="compassInner" x1="0%" y1="0%" x2="100%" y2="100%">
      <stop offset="0%" style="stop-color:#FFFFFF;stop-opacity:0.05" />
      <stop offset="100%" style="stop-color:#FFFFFF;stop-opacity:0.02" />
    </linearGradient>
    
    <!-- Shadow filter -->
    <filter id="cardShadow" x="-20%" y="-20%" width="140%" height="140%">
      <feDropShadow dx="0" dy="4" stdDeviation="8" flood-opacity="0.15"/>
    </filter>
    
    <!-- Calibration pattern -->
    <pattern id="calibrationPattern" x="0" y="0" width="50" height="50" patternUnits="userSpaceOnUse">
      <rect width="50" height="50" fill="none"/>
      <circle cx="25" cy="25" r="20" fill="none" stroke="#E3F2FD" stroke-width="0.5" opacity="0.4"/>
      <path d="M25,5 L30,25 L25,45 L20,25 Z" fill="none" stroke="#E3F2FD" stroke-width="0.5" opacity="0.3"/>
      <circle cx="25" cy="25" r="10" fill="none" stroke="#E3F2FD" stroke-width="0.3" opacity="0.5"/>
    </pattern>
  </defs>
  
  <!-- Phone Frame -->
  <rect width="375" height="812" rx="25" fill="#000000"/>
  <rect x="3" y="3" width="369" height="806" rx="22" fill="url(#calibrationGradient)"/>
  <rect x="3" y="3" width="369" height="806" rx="22" fill="url(#calibrationPattern)" opacity="0.4"/>
  
  <!-- Status Bar -->
  <rect x="3" y="3" width="369" height="44" rx="22" fill="rgba(21,101,192,0.9)"/>
  <text x="20" y="28" fill="white" font-size="14" font-weight="600">9:41</text>
  <text x="320" y="28" fill="white" font-size="12">100%</text>
  <rect x="325" y="20" width="20" height="10" rx="2" fill="white" opacity="0.8"/>
  
  <!-- App Bar -->
  <rect x="3" y="47" width="369" height="56" fill="rgba(21,101,192,0.9)"/>
  <text x="20" y="80" fill="white" font-size="18">тЖР</text>
  <text x="187" y="80" text-anchor="middle" fill="white" font-size="18" font-weight="600">Qibla Compass | ржХрж┐ржмрж▓рж╛рж░ ржжрж┐ржХ</text>
  <text x="340" y="80" fill="white" font-size="18">тЪЩ</text>
  
  <!-- Calibration Header -->
  <rect x="16" y="115" width="343" height="80" rx="16" fill="white" opacity="0.15" filter="url(#cardShadow)"/>
  <rect x="24" y="123" width="48" height="48" rx="12" fill="#E3F2FD"/>
  <text x="48" y="153" text-anchor="middle" fill="#1565C0" font-size="24">ЁЯзн</text>
  <text x="84" y="135" fill="white" font-size="16" font-weight="bold">Compass Calibration | ржХржорзНржкрж╛рж╕ ржХрзНржпрж╛рж▓рж┐ржмрзНрж░рзЗрж╢ржи</text>
  <text x="84" y="150" fill="white" font-size="13" opacity="0.9">Move your device in a figure-8 pattern</text>
  <text x="84" y="165" fill="white" font-size="11" opacity="0.8">╪н╪▒┘Г ╪м┘З╪з╪▓┘Г ┘Б┘К ┘Ж┘Е╪╖ ╪з┘Д╪▒┘В┘Е 8</text>
  
  <!-- Main Compass Container -->
  <g transform="translate(187.5, 400)">
    
    <!-- Outer Compass Circle -->
    <circle cx="0" cy="0" r="140" fill="url(#compassOuter)" stroke="white" stroke-width="2" opacity="0.3"/>
    
    <!-- Inner Compass Circle -->
    <circle cx="0" cy="0" r="120" fill="url(#compassInner)" stroke="white" stroke-width="1" opacity="0.2"/>
    
    <!-- Compass Markings (8 directions) -->
    <g id="compassMarks">
      <line x1="0" y1="-140" x2="0" y2="-120" stroke="white" stroke-width="2" opacity="0.5"/>
      <line x1="0" y1="120" x2="0" y2="140" stroke="white" stroke-width="2" opacity="0.5"/>
      <line x1="-140" y1="0" x2="-120" y2="0" stroke="white" stroke-width="2" opacity="0.5"/>
      <line x1="120" y1="0" x2="140" y2="0" stroke="white" stroke-width="2" opacity="0.5"/>
      
      <line x1="-99" y1="-99" x2="-85" y2="-85" stroke="white" stroke-width="1.5" opacity="0.4"/>
      <line x1="85" y1="85" x2="99" y2="99" stroke="white" stroke-width="1.5" opacity="0.4"/>
      <line x1="-99" y1="99" x2="-85" y2="85" stroke="white" stroke-width="1.5" opacity="0.4"/>
      <line x1="85" y1="-85" x2="99" y2="-99" stroke="white" stroke-width="1.5" opacity="0.4"/>
    </g>
    
    <!-- Cardinal Directions -->
    <g id="cardinalDirections">
      <!-- North -->
      <text x="0" y="-110" text-anchor="middle" fill="white" font-size="18" font-weight="bold">N</text>
      <text x="0" y="-95" text-anchor="middle" fill="white" font-size="12" font-weight="500">╪┤┘Е╪з┘Д</text>
      <text x="0" y="-80" text-anchor="middle" fill="white" font-size="12" font-weight="500">ржЙрждрзНрждрж░</text>
      
      <!-- East -->
      <text x="110" y="0" text-anchor="middle" fill="white" font-size="18" font-weight="bold">E</text>
      <text x="95" y="0" text-anchor="middle" fill="white" font-size="12" font-weight="500">╪┤╪▒┘В</text>
      <text x="80" y="0" text-anchor="middle" fill="white" font-size="12" font-weight="500">ржкрзВрж░рзНржм</text>
      
      <!-- South -->
      <text x="0" y="110" text-anchor="middle" fill="white" font-size="18" font-weight="bold">S</text>
      <text x="0" y="95" text-anchor="middle" fill="white" font-size="12" font-weight="500">╪м┘Ж┘И╪и</text>
      <text x="0" y="80" text-anchor="middle" fill="white" font-size="12" font-weight="500">ржжржХрзНрж╖рж┐ржг</text>
      
      <!-- West -->
      <text x="-110" y="0" text-anchor="middle" fill="white" font-size="18" font-weight="bold">W</text>
      <text x="-95" y="0" text-anchor="middle" fill="white" font-size="12" font-weight="500">╪║╪▒╪и</text>
      <text x="-80" y="0" text-anchor="middle" fill="white" font-size="12" font-weight="500">ржкрж╢рзНржЪрж┐ржо</text>
    </g>
    
    <!-- Calibration Icon -->
    <g id="calibrationIcon">
      <!-- Center circle -->
      <circle cx="0" cy="0" r="40" fill="white" opacity="0.9" filter="url(#cardShadow)"/>
      
      <!-- Calibration icon -->
      <text x="0" y="8" text-anchor="middle" fill="#1565C0" font-size="32">ЁЯзн</text>
      
      <!-- Rotating dots around center -->
      <g opacity="0.7">
        <circle cx="0" cy="-60" r="4" fill="#42A5F5"/>
        <circle cx="42" cy="-42" r="3" fill="#42A5F5"/>
        <circle cx="60" cy="0" r="4" fill="#42A5F5"/>
        <circle cx="42" cy="42" r="3" fill="#42A5F5"/>
        <circle cx="0" cy="60" r="4" fill="#42A5F5"/>
        <circle cx="-42" cy="42" r="3" fill="#42A5F5"/>
        <circle cx="-60" cy="0" r="4" fill="#42A5F5"/>
        <circle cx="-42" cy="-42" r="3" fill="#42A5F5"/>
      </g>
    </g>
    
    <!-- Calibration Progress -->
    <rect x="-60" y="180" width="120" height="8" rx="4" fill="white" opacity="0.3"/>
    <rect x="-60" y="180" width="72" height="8" rx="4" fill="#4CAF50"/>
    <text x="0" y="200" text-anchor="middle" fill="white" font-size="12" font-weight="bold">60% Complete</text>
    
  </g>
  
  <!-- Calibration Instructions -->
  <rect x="16" y="580" width="343" height="120" rx="12" fill="white" opacity="0.15" filter="url(#cardShadow)"/>
  
  <text x="32" y="600" fill="white" font-size="14" font-weight="bold">Calibration Instructions | ржХрзНржпрж╛рж▓рж┐ржмрзНрж░рзЗрж╢ржи ржирж┐рж░рзНржжрзЗрж╢ржирж╛</text>
  
  <!-- Step 1 -->
  <rect x="32" y="610" width="20" height="20" rx="10" fill="#4CAF50"/>
  <text x="42" y="625" text-anchor="middle" fill="white" font-size="12" font-weight="bold">1</text>
  <text x="60" y="620" fill="white" font-size="12">Hold your device flat</text>
  <text x="60" y="635" fill="white" font-size="10" opacity="0.8">ржЖржкржирж╛рж░ ржбрж┐ржнрж╛ржЗрж╕ рж╕ржорждрж▓ржнрж╛ржмрзЗ ржзрж░рзЗ рж░рж╛ржЦрзБржи</text>
  
  <!-- Step 2 -->
  <rect x="32" y="640" width="20" height="20" rx="10" fill="#FFB74D"/>
  <text x="42" y="655" text-anchor="middle" fill="white" font-size="12" font-weight="bold">2</text>
  <text x="60" y="650" fill="white" font-size="12">Move in a figure-8 pattern</text>
  <text x="60" y="665" fill="white" font-size="10" opacity="0.8">8 ржиржорзНржмрж░рзЗрж░ ржЖржХрж╛рж░рзЗ ржирж╛ржбрж╝рж╛ржи</text>
  
  <!-- Step 3 -->
  <rect x="32" y="670" width="20" height="20" rx="10" fill="#E0E0E0"/>
  <text x="42" y="685" text-anchor="middle" fill="#666" font-size="12" font-weight="bold">3</text>
  <text x="60" y="680" fill="white" font-size="12">Wait for completion</text>
  <text x="60" y="695" fill="white" font-size="10" opacity="0.8">рж╕ржорзНржкрзВрж░рзНржг рж╣ржУржпрж╝рж╛ ржкрж░рзНржпржирзНржд ржЕржкрзЗржХрзНрж╖рж╛ ржХрж░рзБржи</text>
  
  <!-- Sensor Status -->
  <rect x="16" y="715" width="343" height="60" rx="12" fill="white" opacity="0.1" filter="url(#cardShadow)"/>
  
  <!-- Compass Sensor -->
  <rect x="24" y="723" width="32" height="32" rx="8" fill="#4CAF50" opacity="0.2"/>
  <text x="40" y="743" text-anchor="middle" fill="#4CAF50" font-size="16">тЬУ</text>
  <text x="68" y="735" fill="white" font-size="12" font-weight="bold">Compass Sensor</text>
  <text x="68" y="750" fill="white" font-size="10" opacity="0.8">Available</text>
  
  <!-- Location Sensor -->
  <rect x="180" y="723" width="32" height="32" rx="8" fill="#4CAF50" opacity="0.2"/>
  <text x="196" y="743" text-anchor="middle" fill="#4CAF50" font-size="16">тЬУ</text>
  <text x="224" y="735" fill="white" font-size="12" font-weight="bold">Location</text>
  <text x="224" y="750" fill="white" font-size="10" opacity="0.8">Available</text>
  
  <!-- Accuracy -->
  <rect x="280" y="723" width="32" height="32" rx="8" fill="#FFB74D" opacity="0.2"/>
  <text x="296" y="743" text-anchor="middle" fill="#FFB74D" font-size="16">тЪа</text>
  <text x="324" y="735" fill="white" font-size="12" font-weight="bold">Accuracy</text>
  <text x="324" y="750" fill="white" font-size="10" opacity="0.8">Calibrating</text>
  
  <!-- Action Buttons -->
  <rect x="16" y="790" width="165" height="45" rx="22" fill="white" opacity="0.2"/>
  <text x="98" y="815" text-anchor="middle" fill="white" font-size="16" font-weight="600">ЁЯФД Retry</text>
  
  <rect x="194" y="790" width="165" height="45" rx="22" fill="white" opacity="0.2"/>
  <text x="276" y="815" text-anchor="middle" fill="white" font-size="16" font-weight="600">тП╕я╕П Pause</text>
  
  <!-- Bottom Navigation -->
  <rect x="3" y="800" width="369" height="12" rx="0 0 22 22" fill="white"/>
  
  <!-- Nav Items -->
  <text x="55" y="828" text-anchor="middle" fill="#666" font-size="16">ЁЯПа</text>
  <text x="55" y="845" text-anchor="middle" fill="#666" font-size="10">Home</text>
  
  <text x="125" y="828" text-anchor="middle" fill="#666" font-size="16">ЁЯХМ</text>
  <text x="125" y="845" text-anchor="middle" fill="#666" font-size="10">Prayer</text>
  
  <text x="195" y="828" text-anchor="middle" fill="#666" font-size="16">ЁЯзо</text>
  <text x="195" y="845" text-anchor="middle" fill="#666" font-size="10">Zakat</text>
  
  <rect x="240" y="815" width="50" height="35" rx="8" fill="#E3F2FD"/>
  <text x="265" y="828" text-anchor="middle" fill="#1565C0" font-size="16">ЁЯзн</text>
  <text x="265" y="845" text-anchor="middle" fill="#1565C0" font-size="10" font-weight="600">Qibla</text>
  
  <text x="335" y="828" text-anchor="middle" fill="#666" font-size="16">тЛп</text>
  <text x="335" y="845" text-anchor="middle" fill="#666" font-size="10">More</text>
</svg>
