<svg viewBox="0 0 375 812" xmlns="http://www.w3.org/2000/svg">
  <defs>
    <!-- Gradients -->
    <linearGradient id="sawmGradient" x1="0%" y1="0%" x2="100%" y2="100%">
      <stop offset="0%" style="stop-color:#7B1FA2;stop-opacity:1" />
      <stop offset="100%" style="stop-color:#BA68C8;stop-opacity:1" />
    </linearGradient>
    
    <linearGradient id="cardGradient" x1="0%" y1="0%" x2="100%" y2="100%">
      <stop offset="0%" style="stop-color:#FFFFFF;stop-opacity:1" />
      <stop offset="100%" style="stop-color:#F8F9FA;stop-opacity:1" />
    </linearGradient>
    
    <!-- Shadow filter -->
    <filter id="cardShadow" x="-20%" y="-20%" width="140%" height="140%">
      <feDropShadow dx="0" dy="4" stdDeviation="8" flood-opacity="0.15"/>
    </filter>
    
    <!-- Islamic pattern -->
    <pattern id="sawmPattern" x="0" y="0" width="60" height="60" patternUnits="userSpaceOnUse">
      <rect width="60" height="60" fill="none"/>
      <circle cx="30" cy="30" r="25" fill="none" stroke="#F3E5F5" stroke-width="0.5" opacity="0.3"/>
      <path d="M30,5 L35,30 L30,55 L25,30 Z" fill="none" stroke="#F3E5F5" stroke-width="0.5" opacity="0.2"/>
      <circle cx="30" cy="30" r="12" fill="none" stroke="#F3E5F5" stroke-width="0.3" opacity="0.4"/>
    </pattern>
  </defs>
  
  <!-- Phone Frame -->
  <rect width="375" height="812" rx="25" fill="#000000"/>
  <rect x="3" y="3" width="369" height="806" rx="22" fill="url(#sawmGradient)"/>
  <rect x="3" y="3" width="369" height="806" rx="22" fill="url(#sawmPattern)" opacity="0.2"/>
  
  <!-- Status Bar -->
  <rect x="3" y="3" width="369" height="44" rx="22" fill="rgba(123,31,162,0.9)"/>
  <text x="20" y="28" fill="white" font-size="14" font-weight="600">9:41</text>
  <text x="320" y="28" fill="white" font-size="12">100%</text>
  <rect x="325" y="20" width="20" height="10" rx="2" fill="white" opacity="0.8"/>
  
  <!-- App Bar -->
  <rect x="3" y="47" width="369" height="56" fill="rgba(123,31,162,0.9)"/>
  <text x="20" y="80" fill="white" font-size="18">тЖР</text>
  <text x="187" y="80" text-anchor="middle" fill="white" font-size="18" font-weight="600">Sawm Tracker | рж╕рж┐ржпрж╝рж╛ржо ржЯрзНрж░рзНржпрж╛ржХрж╛рж░</text>
  <text x="340" y="80" fill="white" font-size="18">ЁЯУК</text>
  
  <!-- Main Content Area -->
  <rect x="3" y="103" width="369" height="703" rx="24 24 0 0" fill="white"/>
  
  <!-- Header Info -->
  <text x="24" y="135" fill="#7B1FA2" font-size="20" font-weight="bold">Ramadan 1445</text>
  <text x="24" y="155" fill="#666" font-size="14">рж░ржоржЬрж╛ржи рззрзкрзкрзл | ╪▒┘Е╪╢╪з┘Ж ┘б┘д┘д┘е</text>
  
  <!-- Today's Status Card -->
  <rect x="16" y="175" width="343" height="120" rx="12" fill="url(#cardGradient)" filter="url(#cardShadow)"/>
  <text x="32" y="195" fill="#7B1FA2" font-size="16" font-weight="bold">Today's Fast | ржЖржЬржХрзЗрж░ рж╕рж┐ржпрж╝рж╛ржо</text>
  
  <!-- Day 15 -->
  <rect x="32" y="205" width="80" height="80" rx="12" fill="#F3E5F5"/>
  <text x="72" y="230" text-anchor="middle" fill="#7B1FA2" font-size="24" font-weight="bold">15</text>
  <text x="72" y="250" text-anchor="middle" fill="#7B1FA2" font-size="12">Day</text>
  <text x="72" y="265" text-anchor="middle" fill="#7B1FA2" font-size="10">ржжрж┐ржи</text>
  
  <!-- Status -->
  <text x="130" y="220" fill="#333" font-size="16" font-weight="bold">Fasting in Progress</text>
  <text x="130" y="240" fill="#666" font-size="12">Started at 4:45 AM</text>
  <text x="130" y="255" fill="#4CAF50" font-size="12" font-weight="600">тЬУ Completed: 5 days</text>
  <text x="130" y="270" fill="#FF8F00" font-size="12">тП│ Remaining: 15 days</text>
  
  <!-- Progress Circle -->
  <circle cx="320" cy="245" r="25" fill="none" stroke="#E0E0E0" stroke-width="4"/>
  <circle cx="320" cy="245" r="25" fill="none" stroke="#4CAF50" stroke-width="4" stroke-dasharray="78.5" stroke-dashoffset="23.6" transform="rotate(-90 320 245)"/>
  <text x="320" y="250" text-anchor="middle" fill="#4CAF50" font-size="12" font-weight="bold">70%</text>
  
  <!-- Statistics Section -->
  <rect x="16" y="310" width="343" height="120" rx="12" fill="url(#cardGradient)" filter="url(#cardShadow)"/>
  <text x="32" y="330" fill="#7B1FA2" font-size="16" font-weight="bold">Statistics | ржкрж░рж┐рж╕ржВржЦрзНржпрж╛ржи</text>
  
  <!-- Completed Fasts -->
  <rect x="32" y="340" width="100" height="70" rx="8" fill="#E8F5E8"/>
  <text x="82" y="360" text-anchor="middle" fill="#2E7D32" font-size="20" font-weight="bold">5</text>
  <text x="82" y="375" text-anchor="middle" fill="#2E7D32" font-size="12">Completed</text>
  <text x="82" y="390" text-anchor="middle" fill="#2E7D32" font-size="10">рж╕ржорзНржкржирзНржи</text>
  
  <!-- Current Streak -->
  <rect x="142" y="340" width="100" height="70" rx="8" fill="#FFF3E0"/>
  <text x="192" y="360" text-anchor="middle" fill="#FF8F00" font-size="20" font-weight="bold">3</text>
  <text x="192" y="375" text-anchor="middle" fill="#FF8F00" font-size="12">Streak</text>
  <text x="192" y="390" text-anchor="middle" fill="#FF8F00" font-size="10">ржзрж╛рж░рж╛ржмрж╛рж╣рж┐ржХ</text>
  
  <!-- Total Hours -->
  <rect x="252" y="340" width="100" height="70" rx="8" fill="#E3F2FD"/>
  <text x="302" y="360" text-anchor="middle" fill="#1565C0" font-size="20" font-weight="bold">120</text>
  <text x="302" y="375" text-anchor="middle" fill="#1565C0" font-size="12">Hours</text>
  <text x="302" y="390" text-anchor="middle" fill="#1565C0" font-size="10">ржШржирзНржЯрж╛</text>
  
  <!-- Calendar View -->
  <rect x="16" y="445" width="343" height="200" rx="12" fill="url(#cardGradient)" filter="url(#cardShadow)"/>
  <text x="32" y="465" fill="#7B1FA2" font-size="16" font-weight="bold">This Week | ржПржЗ рж╕ржкрзНрждрж╛рж╣</text>
  
  <!-- Week Days -->
  <g id="weekDays">
    <!-- Monday -->
    <rect x="32" y="475" width="40" height="60" rx="6" fill="#E8F5E8"/>
    <text x="52" y="490" text-anchor="middle" fill="#2E7D32" font-size="10" font-weight="bold">Mon</text>
    <text x="52" y="505" text-anchor="middle" fill="#2E7D32" font-size="12" font-weight="bold">12</text>
    <text x="52" y="520" text-anchor="middle" fill="#2E7D32" font-size="16">тЬУ</text>
    
    <!-- Tuesday -->
    <rect x="82" y="475" width="40" height="60" rx="6" fill="#E8F5E8"/>
    <text x="102" y="490" text-anchor="middle" fill="#2E7D32" font-size="10" font-weight="bold">Tue</text>
    <text x="102" y="505" text-anchor="middle" fill="#2E7D32" font-size="12" font-weight="bold">13</text>
    <text x="102" y="520" text-anchor="middle" fill="#2E7D32" font-size="16">тЬУ</text>
    
    <!-- Wednesday -->
    <rect x="132" y="475" width="40" height="60" rx="6" fill="#E8F5E8"/>
    <text x="152" y="490" text-anchor="middle" fill="#2E7D32" font-size="10" font-weight="bold">Wed</text>
    <text x="152" y="505" text-anchor="middle" fill="#2E7D32" font-size="12" font-weight="bold">14</text>
    <text x="152" y="520" text-anchor="middle" fill="#2E7D32" font-size="16">тЬУ</text>
    
    <!-- Thursday -->
    <rect x="182" y="475" width="40" height="60" rx="6" fill="#FFF3E0"/>
    <text x="202" y="490" text-anchor="middle" fill="#FF8F00" font-size="10" font-weight="bold">Thu</text>
    <text x="202" y="505" text-anchor="middle" fill="#FF8F00" font-size="12" font-weight="bold">15</text>
    <text x="202" y="520" text-anchor="middle" fill="#FF8F00" font-size="16">тП│</text>
    
    <!-- Friday -->
    <rect x="232" y="475" width="40" height="60" rx="6" fill="#F3E5F5"/>
    <text x="252" y="490" text-anchor="middle" fill="#7B1FA2" font-size="10" font-weight="bold">Fri</text>
    <text x="252" y="505" text-anchor="middle" fill="#7B1FA2" font-size="12" font-weight="bold">16</text>
    <text x="252" y="520" text-anchor="middle" fill="#7B1FA2" font-size="16">-</text>
    
    <!-- Saturday -->
    <rect x="282" y="475" width="40" height="60" rx="6" fill="#F3E5F5"/>
    <text x="302" y="490" text-anchor="middle" fill="#7B1FA2" font-size="10" font-weight="bold">Sat</text>
    <text x="302" y="505" text-anchor="middle" fill="#7B1FA2" font-size="12" font-weight="bold">17</text>
    <text x="302" y="520" text-anchor="middle" fill="#7B1FA2" font-size="16">-</text>
    
    <!-- Sunday -->
    <rect x="332" y="475" width="40" height="60" rx="6" fill="#F3E5F5"/>
    <text x="352" y="490" text-anchor="middle" fill="#7B1FA2" font-size="10" font-weight="bold">Sun</text>
    <text x="352" y="505" text-anchor="middle" fill="#7B1FA2" font-size="12" font-weight="bold">18</text>
    <text x="352" y="520" text-anchor="middle" fill="#7B1FA2" font-size="16">-</text>
  </g>
  
  <!-- Legend -->
  <text x="32" y="555" fill="#666" font-size="12">Legend:</text>
  <rect x="32" y="560" width="12" height="12" rx="2" fill="#E8F5E8"/>
  <text x="50" y="570" fill="#666" font-size="10">Completed</text>
  <rect x="100" y="560" width="12" height="12" rx="2" fill="#FFF3E0"/>
  <text x="118" y="570" fill="#666" font-size="10">Today</text>
  <rect x="160" y="560" width="12" height="12" rx="2" fill="#F3E5F5"/>
  <text x="178" y="570" fill="#666" font-size="10">Upcoming</text>
  
  <!-- Quick Actions -->
  <rect x="16" y="660" width="343" height="80" rx="12" fill="url(#cardGradient)" filter="url(#cardShadow)"/>
  <text x="32" y="680" fill="#7B1FA2" font-size="16" font-weight="bold">Quick Actions | ржжрзНрж░рзБржд ржХрж╛рж░рзНржпржХрзНрж░ржо</text>
  
  <!-- Mark Complete Button -->
  <rect x="32" y="690" width="120" height="35" rx="17" fill="#4CAF50"/>
  <text x="92" y="710" text-anchor="middle" fill="white" font-size="14" font-weight="600">тЬУ Complete</text>
  
  <!-- Skip Button -->
  <rect x="170" y="690" width="80" height="35" rx="17" fill="#FF8F00"/>
  <text x="210" y="710" text-anchor="middle" fill="white" font-size="14" font-weight="600">Skip</text>
  
  <!-- View History Button -->
  <rect x="270" y="690" width="80" height="35" rx="17" fill="#7B1FA2"/>
  <text x="310" y="710" text-anchor="middle" fill="white" font-size="14" font-weight="600">History</text>
  
  <!-- Bottom Navigation -->
  <rect x="3" y="750" width="369" height="62" rx="0 0 22 22" fill="white"/>
  <rect x="3" y="740" width="369" height="20" fill="white"/>
  <line x1="3" y1="750" x2="372" y2="750" stroke="#E0E0E0" stroke-width="1"/>
  
  <!-- Nav Items -->
  <text x="55" y="778" text-anchor="middle" fill="#666" font-size="16">ЁЯПа</text>
  <text x="55" y="795" text-anchor="middle" fill="#666" font-size="10">Home</text>
  
  <text x="125" y="778" text-anchor="middle" fill="#666" font-size="16">ЁЯХМ</text>
  <text x="125" y="795" text-anchor="middle" fill="#666" font-size="10">Prayer</text>
  
  <text x="195" y="778" text-anchor="middle" fill="#666" font-size="16">ЁЯзо</text>
  <text x="195" y="795" text-anchor="middle" fill="#666" font-size="10">Zakat</text>
  
  <text x="265" y="778" text-anchor="middle" fill="#666" font-size="16">ЁЯзн</text>
  <text x="265" y="795" text-anchor="middle" fill="#666" font-size="10">Qibla</text>
  
  <text x="335" y="778" text-anchor="middle" fill="#666" font-size="16">тЛп</text>
  <text x="335" y="795" text-anchor="middle" fill="#666" font-size="10">More</text>
</svg>
