<svg viewBox="0 0 375 812" xmlns="http://www.w3.org/2000/svg">
  <defs>
    <!-- Gradients -->
    <linearGradient id="profileGradient" x1="0%" y1="0%" x2="100%" y2="100%">
      <stop offset="0%" style="stop-color:#4CAF50;stop-opacity:1" />
      <stop offset="100%" style="stop-color:#66BB6A;stop-opacity:1" />
    </linearGradient>
    
    <linearGradient id="cardGradient" x1="0%" y1="0%" x2="100%" y2="100%">
      <stop offset="0%" style="stop-color:#FFFFFF;stop-opacity:1" />
      <stop offset="100%" style="stop-color:#F8F9FA;stop-opacity:1" />
    </linearGradient>
    
    <!-- Shadow filter -->
    <filter id="cardShadow" x="-20%" y="-20%" width="140%" height="140%">
      <feDropShadow dx="0" dy="4" stdDeviation="8" flood-opacity="0.15"/>
    </filter>
    
    <!-- Islamic pattern -->
    <pattern id="profilePattern" x="0" y="0" width="45" height="45" patternUnits="userSpaceOnUse">
      <rect width="45" height="45" fill="none"/>
      <circle cx="22.5" cy="22.5" r="18" fill="none" stroke="#E8F5E8" stroke-width="0.5" opacity="0.3"/>
      <circle cx="22.5" cy="22.5" r="10" fill="none" stroke="#E8F5E8" stroke-width="0.3" opacity="0.2"/>
    </pattern>
  </defs>
  
  <!-- Phone Frame -->
  <rect width="375" height="812" rx="25" fill="#000000"/>
  <rect x="3" y="3" width="369" height="806" rx="22" fill="url(#profileGradient)"/>
  <rect x="3" y="3" width="369" height="806" rx="22" fill="url(#profilePattern)" opacity="0.2"/>
  
  <!-- Status Bar -->
  <rect x="3" y="3" width="369" height="44" rx="22" fill="rgba(76,175,80,0.9)"/>
  <text x="20" y="28" fill="white" font-size="14" font-weight="600">9:41</text>
  <text x="320" y="28" fill="white" font-size="12">100%</text>
  <rect x="325" y="20" width="20" height="10" rx="2" fill="white" opacity="0.8"/>
  
  <!-- App Bar -->
  <rect x="3" y="47" width="369" height="56" fill="rgba(76,175,80,0.9)"/>
  <text x="20" y="80" fill="white" font-size="18">тЖР</text>
  <text x="187" y="80" text-anchor="middle" fill="white" font-size="18" font-weight="600">Profile | ржкрзНрж░рзЛржлрж╛ржЗрж▓</text>
  <text x="340" y="80" fill="white" font-size="18">тЬПя╕П</text>
  
  <!-- Main Content Area -->
  <rect x="3" y="103" width="369" height="703" rx="24 24 0 0" fill="white"/>
  
  <!-- Profile Header -->
  <rect x="16" y="125" width="343" height="120" rx="12" fill="url(#cardGradient)" filter="url(#cardShadow)"/>
  
  <!-- Profile Picture -->
  <circle cx="80" cy="185" r="35" fill="#E8F5E8" stroke="#4CAF50" stroke-width="2"/>
  <text x="80" y="195" text-anchor="middle" fill="#4CAF50" font-size="24">ЁЯСд</text>
  
  <!-- User Info -->
  <text x="130" y="150" fill="#333" font-size="18" font-weight="bold">Ahmed Rahman</text>
  <text x="130" y="165" fill="#666" font-size="14">ржЖрж╣ржорзЗржж рж░рж╣ржорж╛ржи</text>
  <text x="130" y="180" fill="#4CAF50" font-size="12" font-weight="600">Member since March 2024</text>
  <text x="130" y="195" fill="#666" font-size="12">Dhaka, Bangladesh</text>
  <text x="130" y="210" fill="#666" font-size="12">Calculation Method: ISNA</text>
  
  <!-- Edit Button -->
  <rect x="280" y="155" width="60" height="25" rx="12" fill="#4CAF50"/>
  <text x="310" y="170" text-anchor="middle" fill="white" font-size="12" font-weight="600">Edit</text>
  
  <!-- Personal Information Section -->
  <rect x="16" y="260" width="343" height="160" rx="12" fill="url(#cardGradient)" filter="url(#cardShadow)"/>
  <text x="32" y="280" fill="#4CAF50" font-size="16" font-weight="bold">Personal Information | ржмрзНржпржХрзНрждрж┐ржЧржд рждржерзНржп</text>
  
  <!-- Name -->
  <rect x="32" y="290" width="311" height="40" rx="8" fill="white" stroke="#E0E0E0" stroke-width="1"/>
  <text x="48" y="305" fill="#333" font-size="14" font-weight="500">ЁЯСд Full Name</text>
  <text x="48" y="320" fill="#666" font-size="12">Ahmed Rahman</text>
  <text x="325" y="315" text-anchor="middle" fill="#666" font-size="16">тА║</text>
  
  <!-- Email -->
  <rect x="32" y="340" width="311" height="40" rx="8" fill="white" stroke="#E0E0E0" stroke-width="1"/>
  <text x="48" y="355" fill="#333" font-size="14" font-weight="500">ЁЯУз Email</text>
  <text x="48" y="370" fill="#666" font-size="12">ahmed.rahman@email.com</text>
  <text x="325" y="365" text-anchor="middle" fill="#666" font-size="16">тА║</text>
  
  <!-- Phone -->
  <rect x="32" y="390" width="311" height="40" rx="8" fill="white" stroke="#E0E0E0" stroke-width="1"/>
  <text x="48" y="405" fill="#333" font-size="14" font-weight="500">ЁЯУ▒ Phone</text>
  <text x="48" y="420" fill="#666" font-size="12">+880 1712 345 678</text>
  <text x="325" y="415" text-anchor="middle" fill="#666" font-size="16">тА║</text>
  
  <!-- Location -->
  <rect x="32" y="440" width="311" height="40" rx="8" fill="white" stroke="#E0E0E0" stroke-width="1"/>
  <text x="48" y="455" fill="#333" font-size="14" font-weight="500">ЁЯУН Location</text>
  <text x="48" y="470" fill="#666" font-size="12">Dhaka, Bangladesh</text>
  <text x="325" y="465" text-anchor="middle" fill="#666" font-size="16">тА║</text>
  
  <!-- Religious Settings Section -->
  <rect x="16" y="435" width="343" height="120" rx="12" fill="url(#cardGradient)" filter="url(#cardShadow)"/>
  <text x="32" y="455" fill="#4CAF50" font-size="16" font-weight="bold">Religious Settings | ржзрж░рзНржорзАржпрж╝ рж╕рзЗржЯрж┐ржВрж╕</text>
  
  <!-- Madhhab -->
  <rect x="32" y="465" width="311" height="40" rx="8" fill="white" stroke="#E0E0E0" stroke-width="1"/>
  <text x="48" y="480" fill="#333" font-size="14" font-weight="500">ЁЯХМ Madhhab</text>
  <text x="48" y="495" fill="#666" font-size="12">Hanafi</text>
  <text x="325" y="490" text-anchor="middle" fill="#666" font-size="16">тА║</text>
  
  <!-- Calculation Method -->
  <rect x="32" y="515" width="311" height="40" rx="8" fill="white" stroke="#E0E0E0" stroke-width="1"/>
  <text x="48" y="530" fill="#333" font-size="14" font-weight="500">ЁЯзо Calculation Method</text>
  <text x="48" y="545" fill="#666" font-size="12">Islamic Society of North America</text>
  <text x="325" y="540" text-anchor="middle" fill="#666" font-size="16">тА║</text>
  
  <!-- App Statistics Section -->
  <rect x="16" y="570" width="343" height="120" rx="12" fill="url(#cardGradient)" filter="url(#cardShadow)"/>
  <text x="32" y="590" fill="#4CAF50" font-size="16" font-weight="bold">App Statistics | ржЕрзНржпрж╛ржк ржкрж░рж┐рж╕ржВржЦрзНржпрж╛ржи</text>
  
  <!-- Days Used -->
  <rect x="32" y="600" width="100" height="70" rx="8" fill="#E8F5E8"/>
  <text x="82" y="620" text-anchor="middle" fill="#2E7D32" font-size="18" font-weight="bold">45</text>
  <text x="82" y="635" text-anchor="middle" fill="#2E7D32" font-size="12">Days Used</text>
  <text x="82" y="650" text-anchor="middle" fill="#2E7D32" font-size="10">ржмрзНржпржмрж╣рж╛рж░</text>
  
  <!-- Prayers Tracked -->
  <rect x="142" y="600" width="100" height="70" rx="8" fill="#E3F2FD"/>
  <text x="192" y="620" text-anchor="middle" fill="#1565C0" font-size="18" font-weight="bold">225</text>
  <text x="192" y="635" text-anchor="middle" fill="#1565C0" font-size="12">Prayers</text>
  <text x="192" y="650" text-anchor="middle" fill="#1565C0" font-size="10">ржирж╛ржорж╛ржЬ</text>
  
  <!-- Zakat Calculated -->
  <rect x="252" y="600" width="100" height="70" rx="8" fill="#FFF3E0"/>
  <text x="302" y="620" text-anchor="middle" fill="#FF8F00" font-size="18" font-weight="bold">3</text>
  <text x="302" y="635" text-anchor="middle" fill="#FF8F00" font-size="12">Zakat</text>
  <text x="302" y="650" text-anchor="middle" fill="#FF8F00" font-size="10">ржпрж╛ржХрж╛ржд</text>
  
  <!-- Account Actions Section -->
  <rect x="16" y="705" width="343" height="120" rx="12" fill="url(#cardGradient)" filter="url(#cardShadow)"/>
  <text x="32" y="725" fill="#4CAF50" font-size="16" font-weight="bold">Account Actions | ржЕрзНржпрж╛ржХрж╛ржЙржирзНржЯ ржХрж╛рж░рзНржпржХрзНрж░ржо</text>
  
  <!-- Export Data -->
  <rect x="32" y="735" width="311" height="40" rx="8" fill="white" stroke="#E0E0E0" stroke-width="1"/>
  <text x="48" y="750" fill="#333" font-size="14" font-weight="500">ЁЯУе Export Data</text>
  <text x="48" y="765" fill="#666" font-size="12">Backup your data</text>
  <text x="325" y="760" text-anchor="middle" fill="#666" font-size="16">тА║</text>
  
  <!-- Privacy Settings -->
  <rect x="32" y="785" width="311" height="40" rx="8" fill="white" stroke="#E0E0E0" stroke-width="1"/>
  <text x="48" y="800" fill="#333" font-size="14" font-weight="500">ЁЯФТ Privacy Settings</text>
  <text x="48" y="815" fill="#666" font-size="12">Manage data privacy</text>
  <text x="325" y="810" text-anchor="middle" fill="#666" font-size="16">тА║</text>
  
  <!-- Bottom Navigation -->
  <rect x="3" y="750" width="369" height="62" rx="0 0 22 22" fill="white"/>
  <rect x="3" y="740" width="369" height="20" fill="white"/>
  <line x1="3" y1="750" x2="372" y2="750" stroke="#E0E0E0" stroke-width="1"/>
  
  <!-- Nav Items -->
  <text x="55" y="778" text-anchor="middle" fill="#666" font-size="16">ЁЯПа</text>
  <text x="55" y="795" text-anchor="middle" fill="#666" font-size="10">Home</text>
  
  <text x="125" y="778" text-anchor="middle" fill="#666" font-size="16">ЁЯХМ</text>
  <text x="125" y="795" text-anchor="middle" fill="#666" font-size="10">Prayer</text>
  
  <text x="195" y="778" text-anchor="middle" fill="#666" font-size="16">ЁЯзо</text>
  <text x="195" y="795" text-anchor="middle" fill="#666" font-size="10">Zakat</text>
  
  <text x="265" y="778" text-anchor="middle" fill="#666" font-size="16">ЁЯзн</text>
  <text x="265" y="795" text-anchor="middle" fill="#666" font-size="10">Qibla</text>
  
  <text x="335" y="778" text-anchor="middle" fill="#666" font-size="16">тЛп</text>
  <text x="335" y="795" text-anchor="middle" fill="#666" font-size="10">More</text>
</svg>
